<svg xmlns="http://www.w3.org/2000/svg" width="32" height="35.528" viewBox="0 0 32 35.528">
  <g>
    <g transform="matrix(-1 0 0 1 28 25.33333333)">
      <path fill="none" stroke="rgb(220,79,85)" stroke-linecap="round" stroke-linejoin="miter" stroke-width="1.5" d="M.66666667 6.66666667L4 .66666667"/>
      <path fill="none" stroke="rgb(220,79,85)" stroke-linecap="round" stroke-linejoin="miter" stroke-width="1.5" d="M4.66666667 6.66666667L8 .66666667"/>
    </g>
    <g transform="translate(4 25.33333333)">
      <path fill="none" stroke="rgb(220,79,85)" stroke-linecap="round" stroke-linejoin="miter" stroke-width="1.5" d="M.66666667 6.66666667L4 .66666667"/>
      <path fill="none" stroke="rgb(220,79,85)" stroke-linecap="round" stroke-linejoin="miter" stroke-width="1.5" d="M4.66666667 6.66666667L8 .66666667"/>
    </g>
    <path fill="rgb(220,79,85)" fill-rule="evenodd" d="M23 0H9C6.24042511 0 4 2.24042487 4 5v20.66666603c0 .55191612.44808483 1 1 1h22c.55191422 0 1-.44808388 1-1V5c0-2.75957513-2.24042511-5-5-5zM10 4c-1.10456944 0-2 .89543056-2 2v10h16V6c0-1.10456944-.89543152-2-2-2H10zm.66666698 14.66666603c1.47177315 0 2.66666699 1.19489288 2.66666699 2.66666603C13.33333397 22.80510712 12.13844013 24 10.66666698 24 9.19489288 24 8 22.80510712 8 21.33333206c0-1.47177315 1.19489288-2.66666603 2.66666698-2.66666603zM24 21.33333206c0-1.47177315-1.19489288-2.66666603-2.66666794-2.66666603-1.47177315 0-2.66666603 1.19489288-2.66666603 2.66666603C18.66666603 22.80510712 19.86155891 24 21.33333206 24 22.80510712 24 24 22.80510712 24 21.33333206z"/>
  </g>
</svg>
