<svg xmlns="http://www.w3.org/2000/svg" width="24" height="24" viewBox="0 0 24 24">
  <path fill="rgb(142,140,140)" fill-rule="evenodd" d="M7.07493112.52173913V0c.22647507 0 .44046656.0158323.63624698.04724113 1.47617742.23812435 3.08764372 3.3032859 3.02938645 4.8233934-.0343899.905996-.39555428 1.22955883-1.98275296 2.02470392l-.53310238.27011488c-.8523477.46721281-1.45475019 1.28523316-1.25754704 2.04259743.51184966 2.97888038 2.11038278 5.5576808 5.06200997 8.1378887.44681403.39123651.91994123.58186801 1.4207571.58186801.47601678 0 .93606067-.16660233 1.49718248-.49729964.1020907-.06016719.18164022-.10937336.35137414-.2161589.24372598-.15385202.31569152-.19781127.43791002-.2627123l.10631347-.05617519c.70566451-.37723564.83467336-.42509887 1.24465654-.42509887.09656605 0 .20158683.00459768.32327598.0135122 1.21290107.08104966 3.78109223 2.33008202 4.14731075 3.99127205.10101946.45566223-.1336216 1.20851054-.64592187 1.84576182C20.10819827 23.32250943 18.74380753 24 16.72653359 24 10.36659582 24 2 12.40317422 2 5.85835187c0-2.4226428.81678656-4.06396829 2.22265728-5.00631778C5.15226088.22892453 6.1751502 0 7.07493112 0v.52173913z"/>
</svg>
