<svg xmlns="http://www.w3.org/2000/svg" width="32" height="32.622" viewBox="0 0 32 32.622">
  <g transform="translate(0 .62200847)">
    <path fill="rgb(220,79,85)" fill-rule="evenodd" d="M16 9.3774213c-2.1482555 0-4.61977069-2.59014078-9.52742175-.66677074C3.06992763 10.04419204.29955187 15.03895642 1.70886738 20.7125239c1.07118442 4.31233254 4.76371087 8.0012489 8.1663615 9.33479039 3.40265062 1.33354148 4.47511692 0 6.12477112 0v-20.669893z"/>
    <path fill="rgb(220,79,85)" fill-rule="evenodd" d="M16 9.3774213c2.1482555 0 4.61977069-2.59014078 9.52742175-.66677074 3.40265062 1.33354148 6.17302638 6.32830586 4.76371087 12.00187334-1.07118442 4.31233254-4.76371087 8.0012489-8.1663615 9.33479039-3.40265062 1.33354148-4.47511692 0-6.12477112 0v-20.669893z"/>
    <path fill="rgb(220,79,85)" fill-rule="evenodd" d="M15.56539187 7.8835495c.53055395.306314 2.70209912-.68018095 3.8987118-2.75278479 1.1966127-2.07260383.83541112-4.52137384.43460608-4.75277764-.40080504-.2314038-2.70209912.68018095-3.8987118 2.75278478-1.1966127 2.07260383-.96516003 4.44646363-.43460608 4.75277764z"/>
  </g>
</svg>
