<svg xmlns="http://www.w3.org/2000/svg" width="24" height="24" viewBox="0 0 24 24">
  <g>
    <path fill="none" stroke="rgb(251,246,248)" stroke-linecap="round" stroke-linejoin="round" stroke-width="2" d="M23 11L12 1 1 11"/>
    <path fill="rgb(251,246,248)" fill-rule="evenodd" d="M3 9V4c0-.55228475.44771525-1 1-1h1c.55228475 0 1 .44771525 1 1v2L3 9z"/>
    <path fill="rgb(251,246,248)" fill-rule="evenodd" d="M20.66436386 11.70165634C20.8778515 11.89142418 21 12.16342831 21 12.44906616V23c0 .55228424-.44771576 1-1 1h-1c-.55228424 0-1-.44771576-1-1v-6c0-.55228424-.44771576-1-1-1h-3c-.5522852 0-1 .44771576-1 1v6c0 .55228424-.4477148 1-1 1H4c-.55228472 0-1-.44771576-1-1V12.44906616c0-.28563785.1221478-.55764198.33563614-.74740982L12 4l8.66436386 7.70165634zM7 16c-.55228472 0-1 .44771576-1 1v2c0 .55228424.44771528 1 1 1h3c.55228424 0 1-.44771576 1-1v-2c0-.55228424-.44771576-1-1-1H7z"/>
  </g>
</svg>
