<svg xmlns="http://www.w3.org/2000/svg" width="32.667" height="32.667" viewBox="0 0 32.667 32.667">
  <g>
    <g transform="translate(7.33333333 15.33333333)">
      <path fill="rgb(251,246,248)" fill-rule="evenodd" d="M9.1365701 8.48161968l-.86279377 1.29419066c.07920178.1263858.15166297.25445676.21232816.39095343h1.55370285c-.18536585-.6268736-.49374722-1.1964523-.90323723-1.68514409"/>
      <path fill="rgb(251,246,248)" fill-rule="evenodd" d="M8.48559894 12.82120273c-.5089135 1.1273614-1.63796005 1.91769397-2.95237244 1.91769397-1.78793787 0-3.24390236-1.45596449-3.24390236-3.24390236 0-1.78962302 1.45596449-3.24390237 3.24390236-3.24390237.17694013 0 .34545454.02359202.51396895.05055432l.8678492-1.2958758c-.4398226-.13481153-.8981818-.2291796-1.38181815-.2291796-2.6069179 0-4.71840344 2.11317069-4.71840344 4.71840345 0 2.60523276 2.11148554 4.71840344 4.71840344 4.71840344 2.14181814 0 3.92975602-1.43574276 4.5060753-3.39219505H8.48559893z"/>
      <path fill="rgb(251,246,248)" fill-rule="evenodd" d="M19.68843684 6.77591683c-.46004434 0-.89481151.08594235-1.31609754.20895787.19547672.50217294.4010643.95379156.61339245 1.34643013.22749445-.04886918.46172948-.08088692.70270509-.08088692 1.78962302 0 3.24390236 1.4559645 3.24390236 3.24390237 0 1.78793788-1.45427934 3.24390237-3.24390236 3.24390237-1.78962302 0-3.24390237-1.4559645-3.24390237-3.24390237 0-.55104212.15166297-1.06501106.39600886-1.51999997-.2561419-.43813746-.50722837-.94536583-.74820398-1.50146338-.68922393.82066517-1.12230596 1.8654545-1.12230596 3.02146335 0 2.6069179 2.11317069 4.71840344 4.71840345 4.71840344 2.60523276 0 4.71840344-2.11148554 4.71840344-4.71840344 0-2.60523276-2.11317068-4.71840345-4.71840344-4.71840345"/>
      <path fill="rgb(251,246,248)" fill-rule="evenodd" d="M16.89851236 2.67596135c.21232796 5.5811975 3.23716164 8.23192858 3.2691803 8.25720572.30838013.26456738.34545517.72966766.08088684 1.03973389-.14492225.17188453-.35219574.2595129-.56115341.2595129-.16851425 0-.3387146-.05898094-.47858047-.17694092-.1162758-.0994234-2.19742775-1.92274952-3.22873688-5.65197277l-2.70971108 5.42110825c-.16008949.31680679-.43813705.40780544-.66057634.40780544H5.5322156l-.00168515-.0016861c-.4566741 0-.96390247-.55946731-.6117072-1.14421272.32017707-.52913475 3.23884677-4.87680674 4.31902408-6.48443413l-.80381394-2.14687347-1.135787.15166282c-.32186223.0421288-.58643008-.18705082-.58643008-.51228368v-.62687361c0-.32354772.266253-.58980036.58980036-.58980036h3.54048729c.32354832 0 .58980083.26625264.58980083.58980036 0 .3235476-.26456737.62518847-.58474445.66731703l-.91334915.12133038.53419113 1.42394686h5.02678537c-.04886818-.51902437-.08257103-1.05321527-.08257103-1.62279403 0-.40780473.33028794-.73640776.73640633-.73640776.03033256-.00168514.93020058-.03707325 1.83343697-.95884702.28479003-.29152991.75157547-.29658534 1.04310417-.011796.28984451.28478933.2949009.75157425.01011085 1.04310415-.76842499.78527725-1.57223892 1.1307317-2.13676262 1.28239477zM12.7075596 9.6524578l-1.68682957-4.49764967h3.93481207l-2.2479825 4.49764967zm-5.79689646 1.10545445l2.9675393-4.4504652 1.66829205 4.4504652H6.91066313z"/>
    </g>
    <path fill="rgb(251,246,248)" fill-rule="evenodd" d="M10.90386047.00028381H.00042572v21.15802384h6.51843453V14.7580057h3.85076046c4.86105632 0 8.29747104-2.43140983 8.29747104-7.52873039 0-2.99209738-1.98532677-7.2289915-7.76323128-7.2289915zM9.03666534 9.71886978h-2.5178051v-4.2968421h2.9021759c1.60095788 0 3.0837822.11813212 3.0837822 2.0452757 0 2.16517114-1.80724811 2.2515664-3.468153 2.2515664z"/>
  </g>
</svg>
