<svg xmlns="http://www.w3.org/2000/svg" width="24" height="24" viewBox="0 0 24 24">
  <path fill="rgb(142,140,140)" fill-rule="evenodd" d="M5.18469667 17.82585716l-.585752 2.96042252c-.04221678.23219108-.0923481.49868011-.15039588.7994728-.05804777.3007927-.08707094.57255746-.08707094.81530381 0 .47493553.1530323.8601551.45910263 1.15567207C5.12665081 23.85224342 5.54881001 24 6.08707142 24c.67546463 0 1.11609363-.19788742 1.32189941-.59366798.20580578-.39578057.4036932-1.04221154.59366703-1.9393139l.74406433-3.64116096h3.49868012l-.58575153 2.96042252c-.14775849.64380264-.22163582 1.18205643-.22163582 1.61477661 0 .47493553.1530323.8601551.45910263 1.15567207C12.20316792 23.85224342 12.62005043 24 13.14775753 24c.47493649 0 .83904839-.11873245 1.0923481-.35620117.25329971-.23746681.42480183-.5145092.51451206-.8311348.08971024-.31662369.1926117-.76516723.30870724-1.3456459l.74406338-3.64116097h2.437994c.71768188 0 1.2532959-.1609478 1.60686111-.48284912.35356331-.32190132.5303421-.74142265.5303421-1.25857544 0-.51715278-.17941665-.94458961-.5382576-1.28232193-.35884094-.33773231-.89181709-.50659656-1.59894561-.50659656h-1.75725556l.94986916-4.60686016h.8073864c.70712852 0 1.24010467-.15830899 1.59894562-.47493363.35884094-.31662464.5382576-.73878383.5382576-1.26649093 0-1.13984728-.75461007-1.72559357-2.26385308-1.75725556l.5857544-2.9762535c.01055145-.05277062.03693771-.17678.07915497-.3720317.04221725-.1952517.0765152-.3984158.10290145-.60949874.02638626-.2110827.03957749-.42743945.03957749-.64907646 0-.48549056-.15039444-.87071097-.45118714-1.15567276C18.17414093.14247881 17.74934387 3e-8 17.2005272 3e-8c-.47493553 0-.83641052.11609383-1.0844326.34828496-.24802208.23219117-.4195242.5171487-.5145111.85488126-.09498788.33773255-.19525052.7809999-.30079175 1.32981538l-.75989437 3.62532974h-3.46701908l.58575249-2.94459105c.17942047-.96042704.2691288-1.4934032.2691288-1.59894454 0-.4643823-.14775563-.84432566-.44327164-1.1398417C11.18997192.17941807 10.7625351.0316623 10.203166.0316623c-.40105725 0-.72559262.08970886-.9736147.2691293-.24802207.1794204-.44327068.44326999-.58575248.79155674-.14248085.34828663-.27176666.82849288-.3878622 1.4406333l-.74406338 3.62532973H5.1530342c-.70712757 0-1.24274206.16094827-1.60686016.4828496C3.18205619 6.96306228 3 7.3878603 3 7.9155674c0 .49604416.1873331.91556549.56200528 1.25857544.37467218.343009.90500999.5145111 1.59102893.5145111h1.64643812l-.90237474 4.60686017H5.1530342c-.70712757 0-1.24274206.16622543-1.60686016.49868107C3.18205619 15.1266508 3 15.5567255 3 16.0844326c0 1.12929344.728225 1.70976258 2.18469667 1.74142456zm5.17678118-8.13720321h3.49868107l-.90237522 4.60686016H9.42744064l.93403721-4.60686016z"/>
</svg>
