<svg xmlns="http://www.w3.org/2000/svg" width="24" height="24" viewBox="0 0 24 24">
  <g>
    <ellipse cx="4" cy="4" fill="rgb(251,246,248)" rx="3" ry="3"/>
    <ellipse cx="8" cy="5" fill="rgb(251,246,248)" rx="2" ry="2"/>
    <ellipse cx="15.5" cy="3.5" fill="rgb(251,246,248)" rx="3.5" ry="3.5"/>
    <ellipse cx="10.5" cy="4.5" fill="rgb(251,246,248)" rx="2.5" ry="2.5"/>
    <path fill="rgb(251,246,248)" fill-rule="evenodd" d="M13.5 3c.82787254 0 1.5.67212746 1.5 1.5v6c0 .82787254-.67212746 1.5-1.5 1.5s-1.5-.67212746-1.5-1.5v-6c0-.82787254.67212746-1.5 1.5-1.5z"/>
    <rect width="12" height="3" x="4" y="4" fill="rgb(251,246,248)" rx="0" ry="0"/>
    <path fill="rgb(251,246,248)" fill-rule="evenodd" d="M3 6h2v18c-1.10383005 0-2-.89616995-2-2V6z"/>
    <path fill="rgb(251,246,248)" fill-rule="evenodd" d="M13.5 14c.27595751 0 .5.22404249.5.5v5c0 .27595751-.22404249.5-.5.5s-.5-.22404249-.5-.5v-5c0-.27595751.22404249-.5.5-.5z"/>
    <path fill="rgb(251,246,248)" fill-rule="evenodd" d="M10.5 9c.27595751 0 .5.22404249.5.5v10c0 .27595751-.22404249.5-.5.5s-.5-.22404249-.5-.5v-10c0-.27595751.22404249-.5.5-.5z"/>
    <path fill="rgb(251,246,248)" fill-rule="evenodd" d="M7.5 9c.27595751 0 .5.22404249.5.5v10c0 .27595751-.22404249.5-.5.5s-.5-.22404249-.5-.5v-10c0-.27595751.22404249-.5.5-.5z"/>
    <path fill="rgb(251,246,248)" fill-rule="evenodd" d="M16 6h2v16c0 1.10383005-.89616995 2-2 2V6z"/>
    <path fill="rgb(251,246,248)" fill-rule="evenodd" d="M22 8c1.10383005 0 2 .89616995 2 2v6c0 1.10383005-.89616995 2-2 2V8z"/>
    <rect width="11" height="2" x="5" y="22" fill="rgb(251,246,248)" rx="0" ry="0"/>
    <rect width="3" height="2" x="19" y="8" fill="rgb(251,246,248)" rx="0" ry="0"/>
    <rect width="3" height="2" x="19" y="16" fill="rgb(251,246,248)" rx="0" ry="0"/>
  </g>
</svg>
