<svg xmlns="http://www.w3.org/2000/svg" width="30.5" height="25.486" viewBox="0 0 30.5 25.486">
  <g transform="translate(.75 .73615933)">
    <path fill="none" stroke="rgb(220,79,85)" stroke-linecap="round" stroke-linejoin="round" stroke-width="1.5" d="M23.99998449 2.79997978l-.00000133-.78615933C23.9999813.90386063 23.09612042.00621482 21.98618702.0138714L1.98618725.15183613C.88702652.1594184-.00001845 1.05260503-.00001661 2.15179192l.00003345 19.8482283c.00000186 1.1045695.89543387 1.9999985 2.00000337 1.99999663l19.94921802-.00003361c1.05872976-.00000179 1.93403741-.8250979 1.99651158-1.8819828l.05426568-.91802066"/>
    <path fill="rgb(220,79,85)" fill-rule="evenodd" d="M23 24l-9.11065648-11.12594657c-.3554794-.43411195-.99848015-.49085257-1.42448927-.1257019l-3.73417279 3.20071953c-.39673914.34006212-.98840918.31733915-1.35789815-.05214982l-1.6591332-1.6591332c-.3738401-.3738401-.97408259-.39209146-1.36994548-.04165545L0 18.0413793V24"/>
    <path fill="rgb(220,79,85)" fill-rule="evenodd" d="M9.68275862 6.86896552c0 1.64532414-1.3339862 2.97931034-2.97931034 2.97931034s-2.97931035-1.3339862-2.97931035-2.97931034 1.3339862-2.97931035 2.97931035-2.97931035c1.64532413 0 2.97931034 1.3339862 2.97931034 2.97931035z"/>
    <path fill="none" stroke="rgb(220,79,85)" stroke-linecap="round" stroke-linejoin="round" stroke-width="1.5" d="M29 12H19"/>
    <path fill="none" stroke="rgb(220,79,85)" stroke-linecap="round" stroke-linejoin="round" stroke-width="1.5" d="M24 17V7"/>
  </g>
</svg>
