<svg xmlns="http://www.w3.org/2000/svg" width="24" height="24" viewBox="0 0 24 24">
  <g>
    <path fill="rgb(251,246,248)" fill-rule="evenodd" d="M12.95019925.93754351c-.52700997.51985192-1.3738947.51985192-1.90090466 0l-.00014591-.0001437c-.47177124-.46536372-1.25939465-.34050888-1.56411362.24794477l-.00000953.000018c-.34031392.65719121-1.14555073.91894287-1.80724288.58746546-.59255933-.29684525-1.30316638.06518793-1.41136837.71905017l-.00001335.00007868c-.12082958.73017073-.80595016 1.22773313-1.53767824 1.11672497-.65514374-.0993898-1.21908665.4644153-1.11985683 1.11958289l.00014066.00093079c.11083031.73175859-.38687801 1.41676902-1.1170746 1.5374627l-.00023604.0000391c-.65369594.10804892-1.01567876.81846715-.7188679 1.41083241.3315016.66159964.06995511 1.46678257-.5870577 1.80728436l-.00045086.00023365c-.58852553.30500793-.7132777 1.0928421-.2477759 1.56475353l.00012653.0001278c.51976174.5269184.51970536 1.37367439-.00012654 1.90052413-.46544203.47172451-.34070253 1.25938893.2477194 1.56421757l.00020302.0001049c.65716577.34044075.91885555 1.14571762.58736205 1.80744267-.2968452.59255695.06518805 1.30316448.7190503 1.41136646l.0001161.00001907c.73018944.12083436 1.22781432.8059044 1.11694062 1.53767395-.09926987.65517998.46460771 1.21905709 1.1197877 1.11978722.73176765-.11087417 1.4168396.38675118 1.53767203 1.11693955l.00001955.00011634c.10820199.653862.81880904 1.01589585 1.41136837.71905137.66169215-.33147812 1.46692896-.06972695 1.80725241.58748245.30470085.58842087 1.09230614.71321678 1.56398773.24781608l.0002718-.00026893c.52696896-.51995087 1.3739357-.51995087 1.90090466 0l.00018978.00018692c.47175598.46547508 1.2594738.34072876 1.56432342-.24773407l.0001669-.00032234c.34037494-.65703774 1.14551735-.91864586 1.80708503-.58716011.5309353.26602935 1.15670777.00292587 1.35874558-.52514267l-2.09092045-1.44756127c-1.09996605.47952461-2.3140583.74553108-3.5897894.74553108-4.96723508 0-9-4.03276443-9-8.99999904 0-4.96723557 4.03276492-9.00000048 9-9.00000048 4.96723557 0 9 4.03276491 9 9.00000048 0 1.22687816-.24602317 2.39674854-.69138335 3.462924l1.45993995 2.18990898c.48314858-.22737121.71320534-.82240867.45861626-1.33061504l-.00004005-.00008011c-.33148003-.66169643-.06983948-1.46694088.58726883-1.8074255l.00004005-.00002098c.58837318-.30486774.71312141-1.09246922.24776077-1.56423855-.51973152-.52689075-.51978683-1.37356472-.00012588-1.90052414l.00013923-.00014114c.46541405-.47194958.34065438-1.25971031-.24781417-1.56475258l-.00022507-.0001173c-.65699959-.34056854-.91851425-1.14577246-.5870037-1.8073883.29681014-.59236527-.0651722-1.3027835-.71886826-1.41083241l-.00023652-.0000391c-.730196-.12069369-1.22790527-.80570412-1.11707496-1.53746271l.000103-.00068331c.09925079-.65529824-.46479416-1.21922136-1.12007142-1.11983037l-.00022316.00003361c-.73175048.11099053-1.41687965-.3865931-1.5377121-1.11678361l-.00004577-.0002768c-.108181-.65372778-.81866646-1.01566155-1.4110794-.71882702-.6615677.33148527-1.4667101.06987715-1.80708504-.58716112l-.0001669-.00032234c-.30486679-.58849585-1.09260368-.71330068-1.56445026-.247863l-.00006294.00006193z"/>
    <path fill="rgb(251,246,248)" fill-rule="evenodd" d="M9.94855624 5.37139058L9 3h3c-.55191493 0-1 .44808498-1 1 0 .55191505.44808507 1 1 1 .55191517 0 1-.44808495 1-1 0-.55191502-.44808483-1-1-1h3l-.94855642 2.37139058C13.89958048 5.75104904 13.5318718 6 13.12296724 6H10.877033c-.40890468 0-.77661336-.24895096-.92847676-.62860942z"/>
    <path fill="rgb(251,246,248)" fill-rule="evenodd" d="M5.06188783 11.9026859l-2.54844639.16933176.9270497-2.85316997c-.17055085.52490237.11713764 1.08952234.6420401 1.26007322.52490247.1705509 1.08952236-.11713772 1.26007322-.64204008.17055093-.5249026-.11713761-1.08952233-.6420401-1.26007323-.52490245-.17055088-1.08952228.1171375-1.26007321.6420401l.9270497-2.85316997L6.32974799 8.0006076c.3141485.26175117.43728688.68839293.3109286 1.07728432l-.69403089 2.13601072c-.12635832.3888915-.47675286.66167333-.88475787.68878326z"/>
    <path fill="rgb(251,246,248)" fill-rule="evenodd" d="M9.76345333 18.56846898l-.62647363 2.4760418-2.4270486-1.76335902c.44650811.32440806 1.07239443.22527833 1.39680254-.22122986.32440813-.44650822.22527826-1.07239448-.22122986-1.39680254-.44650831-.3244082-1.07239442-.22527836-1.39680255.22122986-.3244081.44650819-.22527845 1.07239434.22122986 1.39680254l-2.4270486-1.76335903 2.1612685-1.36094489c.34601777-.21788679.78983003-.203158 1.12064044.0371905l1.8169972 1.32012948c.3308105.24034859.4819628.65788809.3816647 1.05430116z"/>
    <path fill="rgb(251,246,248)" fill-rule="evenodd" d="M17.67025195 8.00060743l1.9622072-1.6349297.9270497 2.85316996c-.17055085-.52490237-.73517076-.81259097-1.26007322-.64204009-.52490248.1705509-.81259094.73517086-.64204009 1.26007323.17055094.52490259.73517075.81259098 1.26007323.64204008.52490245-.17055088.81259102-.73517062.64204008-1.26007322l.9270497 2.85316997-2.54844644-.16933193c-.40800492-.02710965-.75839946-.29989147-.88475774-.68878287l-.69403089-2.13601071c-.12635832-.38889151-.00321993-.81553327.31092847-1.07728472z"/>
    <path fill="rgb(251,246,248)" fill-rule="evenodd" d="M10.08640385 14.86624336C8.45144939 13.61277771 8.29324722 11.20675182 9.75 9.75c1.45675182-1.45675278 3.86277771-1.29855156 5.11624336.33640385l8.27330399 10.79126644C23.63197327 21.51996613 23.5722885 22.42771149 23 23c-.57228851.57228851-1.48003387.63197327-2.12232971.13954735l-10.79126644-8.27330399zM12 10c1.10383034 0 2 .89616966 2 2s-.89616966 2-2 2-2-.89616966-2-2 .89616966-2 2-2zm10.5 11.75c0-.41393661-.33606339-.75-.75-.75s-.75.33606339-.75.75.33606339.75.75.75.75-.33606339.75-.75z"/>
  </g>
</svg>
