<svg xmlns="http://www.w3.org/2000/svg" width="32" height="32" viewBox="0 0 32 32">
  <g>
    <path fill="rgb(220,79,85)" fill-rule="evenodd" d="M17.40417224 1.11468077c-.77877521.76820028-2.03024292.76820028-2.809021 0L14.43131478.9530692c-.47965718-.47314265-1.28044701-.34620082-1.59025956.25208938l-.10532188.20339108c-.5031147.97158181-1.69356537 1.35855174-2.67180061.86850011l-.20516205-.10277653c-.60226154-.30170595-1.32450533.06625533-1.43447924.73082435l-.03749847.2266016c-.17862225 1.07941008-1.19143439 1.8149562-2.2731471 1.65085268l-.22637511-.03434276c-.66617584-.10106325-1.2396152.47223616-1.1387148 1.1384368l.03448916.22771453c.1638322 1.08170891-.57189536 2.0943122-1.6512947 2.27272558l-.22623015.03739357c-.6647017.10986805-1.03277898.83224678-.73097086 1.43458558l.10257316.2047119c.49004674.97801877.10341215 2.1682911-.86782617 2.67164231l-.2047727.10612488c-.59806073.30994988-.7248341 1.11054802-.25179041 1.59010506l.16176295.16399002c.76827318.7788515.76818973 2.03046322-.00018704 2.80921173l-.16114646.16332054c-.47319618.47958374-.34637857 1.28037071.25184625 1.59027672l.20398856.10567665c.97138053.5032177 1.3581937 1.69352722.86820107 2.67164421l-.1029253.2054596c-.30170607.6022625.06625533 1.32450485.73082423 1.43447875l.22696686.03755951c1.07926607.1785984 1.81478715 1.19117737 1.65090823 2.27277565l-.03436803.22683144c-.10093046.6661396.47237968 1.23945045 1.13852071 1.1385212l.22683096-.03436852c1.08159876-.1638794 2.0941782.57164192 2.2727766 1.65090752l.03755856.22696685c.1099739.66456986.8322177 1.03252984 1.43447924.73082543l.20516205-.10277748c.97823524-.49005127 2.16868591-.10308075 2.67180061.86849975l.1052332.20322228c.30983924.59833908 1.11072253.7252407 1.59035587.25199318l.16363716-.16145706c.77882385-.7684536 2.03058243-.7684536 2.80940532 0l.16380692.1616249c.47958374.47319794 1.28037071.34638214 1.59027862-.2518444l.10559655-.20383644c.50324821-.97143936 1.69366264-1.3582306 2.6717987-.86812592l.20465088.10254288c.60226822.30177307 1.32457543-.06618118 1.43455506-.73078537l.023489-.1419468-2.81215668-1.94687843c-1.4666214.63936615-3.08540917.99404145-4.78638363.99404145-6.62298012 0-12.00000024-5.37701989-12.00000024-11.99999905 0-6.62298012 5.37702012-12 12.00000024-12 6.62297916 0 11.99999904 5.37701988 11.99999904 12 0 1.6358366-.32803154 3.1956625-.92184639 4.61723041l1.97673417 2.96509934.04001426-.00662232c.66456986-.1099739 1.03252983-.83221626.73082543-1.43447875l-.10300255-.20561219c-.48996353-.97805786-.10323143-2.1682949.8680458-2.671566l.20388032-.10564233c.59811592-.30991554.7249298-1.11055946.25186348-1.59013938l-.1613865-.16361046c-.76812553-.77870274-.76820754-2.03002167-.00018882-2.80882645l.16200447-.16427898c.47291374-.47955418.34614372-1.28000927-.25180817-1.58996869l-.20466423-.1060915c-.97113418-.50340461-1.357687-1.69360446-.86767006-2.67156219l.1026497-.20486545c.3018074-.6023388-.06626893-1.32471753-.7309704-1.43458558l-.22623061-.03739357c-1.07939911-.17841339-1.81512833-1.19101667-1.65129471-2.27272558l.0344944-.2277546c.10089874-.6661887-.47251892-1.23948382-1.13868713-1.13844108l-.2271309.03445101c-1.08169555.16406918-2.09447288-.57147264-2.27309036-1.65086126l-.03748893-.2265377c-.10997963-.66460407-.83228684-1.03255952-1.43455506-.73078669l-.20465088.1025436c-.97813606.49010527-2.16855049.10331416-2.6717987-.86812509l-.10568428-.20400762c-.30988121-.5981754-1.11057473-.72503299-1.59018326-.25193984l-.16400719.16177959z"/>
    <path fill="rgb(220,79,85)" fill-rule="evenodd" d="M13.34855628 7.37139058L12 4h4c-.73588657 0-1.33333325.59744662-1.33333325 1.33333337 0 .7358867.59744668 1.33333338 1.33333325 1.33333338.73588657 0 1.3333335-.59744668 1.3333335-1.33333338C17.3333335 4.59744662 16.73588656 4 16 4h4l-1.34855604 3.37139058C18.49958038 7.75104904 18.1318717 8 17.72296715 8h-3.4459343c-.40890443 0-.77661323-.24895096-.92847657-.62860942z"/>
    <path fill="rgb(220,79,85)" fill-rule="evenodd" d="M6.97436494 15.85528566l-3.62310968.24073788 1.23606627-3.80422662c-.22740115.69986983.15618352 1.45269637.85605351 1.68009757.69986994.22740118 1.4526965-.15618354 1.68009764-.85605336.22740115-.69986983-.1561835-1.45269662-.85605344-1.6800978-.69986999-.2274012-1.45269657.15618377-1.68009771.8560536L5.82338779 8.4875703l2.7896573 2.32436874c.31414834.26175162.43728673.68839338.31092845 1.07728478l-1.06485079 3.27727874c-.12635824.38889129-.47675282.66167322-.88475781.6887831z"/>
    <path fill="rgb(220,79,85)" fill-rule="evenodd" d="M13.07329306 24.53917515l-.89065346 3.52017257-3.2360648-2.35114537c.59534415.43254408 1.42985916.30037108 1.86240334-.29497323.43254415-.59534425.3003711-1.4298593-.29497305-1.86240338-.59534417-.43254407-1.4298594-.30037117-1.86240355.29497309-.43254418.5953443-.30037091 1.42985944.29497325 1.86240352L5.71051 23.35705698 8.783171 21.4222102c.34601815-.21788651.7898304-.20315773 1.12064081.03719078l2.78781668 2.02547312c.33081031.24034844.48196272.65788801.38166456 1.05430105z"/>
    <path fill="rgb(220,79,85)" fill-rule="evenodd" d="M23.38695499 10.81193927L26.1766122 8.4875703l1.23606626 3.80422662c-.22740114-.69986982-.98022765-1.08345456-1.68009764-.85605336-.69986994.22740118-1.08345466.98022774-.85605351 1.68009757.22740114.69986982.98022778 1.08345476 1.68009771.85605359.69987-.2274012 1.08345459-.98022797.85605344-1.6800978l1.23606627 3.80422662-3.6231096-.24073765c-.40800507-.02711011-.75839961-.29989193-.8847579-.68878333l-1.06485078-3.27727874c-.12635824-.38889128-.0032199-.81553316.31092853-1.07728455z"/>
    <path fill="rgb(220,79,85)" fill-rule="evenodd" d="M13.44853973 19.82165718C11.26859951 18.15036964 11.05766392 14.94233608 13 13c1.94233704-1.94233704 5.15037155-1.73140144 6.82165909.44853878L30.8527317 27.83689404c.65656853.85639572.57698632 2.06672287-.18606376 2.82977294-.76305199.76305008-1.97337914.8426323-2.82977295.18606186L13.44853973 19.82165718zM16 13.33333302c1.47177315 0 2.66666603 1.19489288 2.66666603 2.66666698 0 1.47177315-1.19489288 2.66666603-2.66666603 2.66666603-1.4717741 0-2.66666698-1.19489288-2.66666698-2.66666603 0-1.4717741 1.19489288-2.66666698 2.66666698-2.66666698zm14 15.66666603c0-.55191422-.44808578-1-1-1s-1 .44808578-1 1c0 .55191421.44808578 1 1 1s1-.44808579 1-1z"/>
  </g>
</svg>
