<svg xmlns="http://www.w3.org/2000/svg" width="165" height="138.932" viewBox="0 0 165 138.932">
  <defs>
    <linearGradient id="linearGradient-2" x1="132.5" x2="132.5" y1="69.466" y2="28.466" gradientUnits="userSpaceOnUse">
      <stop offset="0" stop-color="rgb(248,242,232)" stop-opacity="0"/>
      <stop offset="1" stop-color="rgb(246,239,227)"/>
    </linearGradient>
    <linearGradient id="linearGradient-4" x1="20.5" x2="20.5" y1="54.466" y2="28.466" gradientUnits="userSpaceOnUse">
      <stop offset="0" stop-color="rgb(248,242,232)" stop-opacity="0"/>
      <stop offset="1" stop-color="rgb(246,239,227)"/>
    </linearGradient>
  </defs>
  <g>
    <path fill="url(#linearGradient-2)" fill-rule="evenodd" d="M111.49389648 44.4771612C113.54307556 35.31898858 121.72756958 28.46620537 131.5 28.46620537c9.10662842 0 16.83432007 5.95077515 19.50326538 14.1725769.64944458-.11349487 1.31652832-.1725769 1.99673462-.1725769 6.62298584 0 12 5.60107422 12 12.5s-5.37701416 12.5-12 12.5c-3.04333496 0-5.82357788-1.18267822-7.93991089-3.13049316C141.44515991 67.528034 136.6971283 69.46620538 131.5 69.46620538c-4.16932678 0-8.04962158-1.24734497-11.28771973-3.38894653-2.14733886 2.10116577-5.03657531 3.38894653-8.21228027 3.38894653-6.62298584 0-12-5.60107422-12-12.5 0-6.72232055 5.10525513-12.21240234 11.49389648-12.48904419z"/>
    <path fill="url(#linearGradient-4)" fill-rule="evenodd" d="M7.34809875 38.46782281C8.70332336 32.73637751 13.85691833 28.46620538 20 28.46620538c5.81111145 0 10.73680115 3.82113648 12.39936829 9.08569336.35925293-.05645752.72676086-.08569336 1.10063171-.08569336 4.13935852 0 7.5 3.58468628 7.5 8s-3.36064148 8-7.5 8c-1.95405579 0-3.7345581-.79882812-5.06993103-2.106781-2.27043152 1.93692016-5.21470642 3.106781-8.43006897 3.106781-2.70336914 0-5.2151184-.82696533-7.29585266-2.2414856C11.3550415 53.61232356 9.52026367 54.46620539 7.5 54.46620539c-4.13936615 0-7.5-3.58468628-7.5-8 0-4.36117553 3.2787323-7.91195678 7.34809875-7.99838257z"/>
    <g>
      <g opacity=".5" transform="translate(24 124.46620538)">
        <path fill="rgb(33,35,34)" fill-rule="evenodd" d="M48.8834835 3.76317571l-1.95956175.15256009c-.39947296.02103141-.78514066.01748734-.9933375 0l-6.89704184-.4763237C23.03988605 3.2627287 5.22361653 2.56961467.24532256 1.74149974-2.57122303.779696 19.23879124 0 46.42725301 0c27.18846176 0 48.99847603.779696 46.18193044 1.74149975-4.97829397.82811493-22.79456349 1.52122895-38.78821985 1.69791234l-4.9374801.32376362z"/>
      </g>
    </g>
    <g>
      <path fill="none" stroke="rgb(237,233,234)" stroke-width=".5" d="M67.46728972 21.52228015v95.88785047"/>
      <path fill="none" stroke="rgb(237,233,234)" stroke-width=".5" d="M75.54205607 21.52228015v95.88785047"/>
      <path fill="none" stroke="rgb(237,233,234)" stroke-width=".5" d="M28.10280374 49.7839624l82.76635514 48.44859812"/>
      <path fill="none" stroke="rgb(237,233,234)" stroke-width=".5" d="M32.14018692 41.70919604l82.76635514 48.44859813"/>
      <path fill="none" stroke="rgb(237,233,234)" stroke-width=".5" d="M32.14018692 98.23256052l82.76635514-48.44859813"/>
      <path fill="none" stroke="rgb(237,233,234)" stroke-width=".5" d="M28.10280374 90.15779417l82.76635514-48.44859813"/>
      <path fill="none" stroke="rgb(237,233,234)" stroke-width=".5" d="M67.46728972 66.9428409l33.30841121-35.3271028"/>
      <path fill="none" stroke="rgb(237,233,234)" stroke-width=".5" d="M71.5046729 64.9241493l47.43925233 11.10280375"/>
      <path fill="none" stroke="rgb(237,233,234)" stroke-width=".5" d="M75.54205607 66.9428409l14.13084113 46.42990654"/>
      <path fill="none" stroke="rgb(237,233,234)" stroke-width=".5" d="M75.54205607 71.98956987l-33.30841121 36.3364486"/>
      <path fill="none" stroke="rgb(237,233,234)" stroke-width=".5" d="M71.5046729 75.01760725L24.06542056 63.91480351"/>
      <path fill="none" stroke="rgb(237,233,234)" stroke-width=".5" d="M66.45794393 71.98956987L52.3271028 25.55966333"/>
      <path fill="none" stroke="rgb(237,233,234)" stroke-width=".5" d="M67.46728972 71.98956987l33.30841121 35.3271028"/>
      <path fill="none" stroke="rgb(237,233,234)" stroke-width=".5" d="M71.5046729 75.01760725l47.43925233-11.10280374"/>
      <path fill="none" stroke="rgb(237,233,234)" stroke-width=".5" d="M75.54205607 71.98956987L89.6728972 25.55966333"/>
      <path fill="none" stroke="rgb(237,233,234)" stroke-width=".5" d="M75.54205607 67.9521867L42.23364486 31.6157381"/>
      <path fill="none" stroke="rgb(237,233,234)" stroke-width=".5" d="M71.5046729 64.9241493L24.06542056 76.02695306"/>
      <path fill="none" stroke="rgb(237,233,234)" stroke-width=".5" d="M66.45794393 66.9428409L52.3271028 113.37274744"/>
      <path fill="none" stroke="rgb(36,40,39)" stroke-width="7" d="M71 16.46620538c-29.2719 0-53 23.7281-53 53s23.7281 53 53 53 53-23.7281 53-53-23.7281-53-53-53z"/>
      <path fill="rgb(237,233,234)" fill-rule="evenodd" d="M70.59813084 58.46620538C64.7419207 58.46620538 60 63.21293026 60 69.06124188c0 5.8545003 4.7419207 10.60122519 10.59813084 10.60122519 5.85621015 0 10.59813084-4.74672488 10.59813084-10.60122519 0-5.84831162-4.74192069-10.5950365-10.59813084-10.5950365"/>
      <path fill="none" stroke="rgb(251,246,248)" stroke-width="3" d="M71.0039228 21.52228015c-26.47741936 0-47.94392524 21.46650588-47.94392524 47.94392523 0 26.47741936 21.46650588 47.94392524 47.94392523 47.94392524 26.47741936 0 47.94392524-21.46650588 47.94392524-47.94392524 0-26.47741935-21.46650588-47.94392523-47.94392524-47.94392523z"/>
      <path fill="rgb(237,233,234)" fill-rule="evenodd" d="M70.55140187 74.56900912C67.4903485 74.56900912 65 72.07866062 65 69.01760725c0-3.06105336 2.4903485-5.55140187 5.55140187-5.55140187s5.55140187 2.4903485 5.55140187 5.55140187-2.4903485 5.55140187-5.55140187 5.55140187"/>
      <path fill="rgb(220,79,85)" fill-rule="evenodd" d="M64 69.0256231c0-3.62475585 2.93315125-6.55941772 6.55607605-6.55941772 3.62290955 0 6.55607605 2.93466187 6.55607605 6.55941773 0 3.6180725-2.9331665 6.55273437-6.55607605 6.55273437C66.93315125 75.57835748 64 72.64369562 64 69.02562311zm11.4714508.00003053c0-2.71356202-2.20321655-4.91790772-4.91539-4.91790772-2.71215821 0-4.91537476 2.2043457-4.91537476 4.91790772 0 2.70684814 2.20321655 4.91119384 4.91537475 4.91119384 2.71217346 0 4.91539002-2.2043457 4.91539002-4.91119384z"/>
    </g>
  </g>
</svg>
