<svg xmlns="http://www.w3.org/2000/svg" width="24.031" height="24" viewBox="0 0 24.031 24">
  <path fill="rgb(142,140,140)" fill-rule="evenodd" d="M12.01568604 1.2e-7c1.64183807 0 3.19215011.3058793 4.65098.91764706 1.45883178.61176771 2.74509238 1.47450418 3.85882377 2.58823508 1.11373138 1.11373139 1.97646713 2.39999295 2.58823585 3.85882378.61176682 1.45883083.91764641 3.00914192.91764641 4.65098 0 2.15425968-.54117012 4.15423965-1.62352943 6-1.08235741 1.84576034-2.54378128 3.30456924-4.38431359 4.37647056C16.18299675 23.46405792 14.18040275 24 12.01568604 24c-2.1960888 0-4.21175528-.5333271-6.04705859-1.60000038-1.8353033-1.06667137-3.2888832-2.5228653-4.36078417-4.36862755C.53594249 16.18561172 1.2e-7 14.18040276 1.2e-7 12.01568604c0-2.17517376.53594237-4.18561125 1.60784316-6.03137255 1.07190096-1.84576082 2.53070939-3.30456925 4.3764702-4.37647021C7.83007479.53594249 9.84051229 1.2e-7 12.01568605 1.2e-7zm-4.8549018 3.65490186c1.46928835-.8679781 3.08757353-1.30196047 4.8549018-1.30196047 1.74641418 0 3.35947036.43398238 4.83921623 1.30196047 1.47974586.86797857 2.65359115 2.04443693 3.5215683 3.5294118.86797905 1.48497486 1.30195999 3.09541606 1.30195999 4.8313732 0 1.76732827-.43136788 3.38561345-1.29411698 4.85490132-.8627491 1.46928787-2.03659248 2.63267517-3.5215683 3.49019623-1.48497486.85752106-3.10064506 1.28627396-4.84705924 1.28627396-1.75687123 0-3.37254143-.43136788-4.8470583-1.29411698-1.47451735-.8627491-2.64313316-2.02875137-3.50588226-3.49803924-.86274958-1.46928883-1.29411793-3.08234406-1.29411793-4.83921528 0-1.74641419.43136835-3.35947037 1.29411793-4.83921623.8627491-1.47974587 2.02875042-2.6535902 3.49803876-3.52156878zM17.4745102 9.16078472l-2.57254982.61176396c-.55425071-1.46405888-1.48496055-2.19607783-2.79215622-2.19607783-1.00392723 0-1.79084777.38692427-2.36078453 1.16078425-.5699377.77385997-.85490226 1.80391502-.85490226 3.0901966 0 1.01438332.12026023 1.869277.36078453 2.5647049.24052429.69542885.59346199 1.21829891 1.05882358 1.56862831.4653616.35032845 1.0222187.5254898 1.6705885.5254898 1.44314384 0 2.42614078-.89933776 2.94901943-2.69803905l2.5411768.86274529c-.83660508 2.7189684-2.68756772 4.07843113-5.55294228 4.07843113-1.02484131 0-1.9790802-.25097847-2.86274433-.75294113-.88366509-.50196457-1.5921545-1.26535416-2.1254902-2.29019642-.53333616-1.02484131-.80000018-2.24835873-.80000018-3.6705885 0-1.32811069.245749-2.49149799.7372551-3.49019622.49150562-.99869728 1.194767-1.77515984 2.10980415-2.32941103.91503715-.5542512 1.98953628-.83137274 3.22352886-.83137274 2.59347725 0 4.35032368 1.26534653 5.27058887 3.79607868z"/>
</svg>
