<svg xmlns="http://www.w3.org/2000/svg" width="32" height="35.2" viewBox="0 0 32 35.2">
  <g transform="translate(1.33333333)">
    <ellipse cx="4.4" cy="17.6" fill="rgb(220,79,85)" rx="4.4" ry="4.4"/>
    <path fill="rgb(220,79,85)" fill-rule="evenodd" d="M10.26666667 16.5l19.06666666-1.46666667v5.13333334L10.26666667 18.7v-2.2z"/>
    <path fill="rgb(220,79,85)" fill-rule="evenodd" d="M8.80000055 13.81017224l12.73047373-9.0435066 2.5666675 4.4455966-14.19714087 6.50316568-1.10000036-1.90525568z"/>
    <path fill="rgb(220,79,85)" fill-rule="evenodd" d="M6.01038808 11.92118806L11.27186895.73333294 15.6251835 3.4535836 7.8760943 13.08700976l-1.86570623-1.1658217z"/>
    <g transform="matrix(1 0 0 -1 4.4 35.2)">
      <path fill="rgb(220,79,85)" fill-rule="evenodd" d="M4.40000055 13.81017224l12.73047373-9.0435066 2.5666675 4.4455966-14.19714087 6.50316568-1.10000036-1.90525568z"/>
      <path fill="rgb(220,79,85)" fill-rule="evenodd" d="M1.61038808 11.92118806L6.87186895.73333294 11.2251835 3.4535836 3.4760943 13.08700976l-1.86570623-1.1658217z"/>
    </g>
  </g>
</svg>
