<svg xmlns="http://www.w3.org/2000/svg" width="24" height="24" viewBox="0 0 24 24">
  <g>
    <path fill="rgb(220,79,85)" fill-rule="evenodd" d="M12 24c-1.22222233 0-11-5.38139915-11-13.1999998C1 4.8354001 5.9249444 0 12 0c6.07505608 0 11 4.8354001 11 10.8000002C23 18.63780021 13.22222233 24 12 24zm8-13c0-4.4153204-3.58467865-8-8-8-4.4153204 0-8 3.5846796-8 8 0 4.4153204 3.5846796 8 8 8 4.41532135 0 8-3.5846796 8-8z"/>
    <ellipse cx="9.5" cy="8.5" fill="rgb(220,79,85)" rx="2.5" ry="2.5"/>
    <ellipse cx="12" cy="12" fill="rgb(220,79,85)" rx="1" ry="1"/>
  </g>
</svg>
