<svg xmlns="http://www.w3.org/2000/svg" width="32" height="32" viewBox="0 0 32 32">
  <g>
    <path fill="rgb(220,79,85)" fill-rule="evenodd" d="M6.51842642 4h24.13456964c.73700524 0 1.45801545.6040001 1.33273888 1.3333335l-2.66547775 17.33333253C29.25761795 23.20800018 28.72452164 24 27.9875183 24H7.99643373c-.73700475 0-1.15015363-.65866661-1.33273887-1.33333397L4.20345879 6.66666651l-.65304232-3.99999976H1.332739C.5957343 2.66666675 0 2.07066655 0 1.33333337 0 .59600002.5957343 0 1.332739 0h3.16525495C5.2349987 0 5.8720479.37333333 5.99732542 1.10266662L6.51842642 4zm2.47756147 17.33333397h17.99197674L28.98707199 6.6666665H6.99687958l1.99910831 14.66666746z"/>
    <path fill="rgb(220,79,85)" fill-rule="evenodd" d="M19.99840546 28.66438103c0-1.84118653 1.49188041-3.33306694 3.33306694-3.33306694 1.84118652 0 3.33306694 1.49188041 3.33306694 3.33306694 0 1.84118652-1.49188042 3.33306694-3.33306694 3.33306694-1.84118653 0-3.33306694-1.49188042-3.33306694-3.33306694zm1.33322715-.00000191c0 1.10391235.89592934 1.99984169 1.99983979 1.99984169 1.10391235 0 1.99984169-.89592934 1.99984169-1.99984169 0-1.10391045-.89592934-1.99983978-1.9998417-1.99983978-1.10391044 0-1.99983978.89592933-1.99983978 1.99983978z"/>
    <path fill="rgb(220,79,85)" fill-rule="evenodd" d="M7.999362 28.66438103c0-1.84118653 1.49188136-3.33306694 3.33306789-3.33306694 1.84118652 0 3.33306694 1.49188041 3.33306694 3.33306694 0 1.84118652-1.49188042 3.33306694-3.33306694 3.33306694-1.84118653 0-3.3330679-1.49188042-3.3330679-3.33306694zm1.33322715-.00000191c0 1.10391235.89592838 1.99984169 1.99984074 1.99984169 1.1039114 0 1.99983978-.89592934 1.99983978-1.99984169 0-1.10391045-.89592838-1.99983978-1.99983978-1.99983978-1.10391236 0-1.99984074.89592933-1.99984074 1.99983978z"/>
  </g>
</svg>
