<svg xmlns="http://www.w3.org/2000/svg" width="22.057" height="22.057" viewBox="0 0 22.057 22.057">
  <g transform="translate(1.02847258 1.02847258)">
    <path fill="rgb(220,79,85)" fill-rule="evenodd" d="M1.60933125 9.32742119c-.34663272.38139343-.34663272.96376419 0 1.34515762 0 0 3.9330157 4.32742119 8.47731102 4.32742119 4.5442953 0 8.477314-4.32742119 8.477314-4.32742119.34663009-.38139343.34663009-.96376419 0-1.34515762 0 0-3.9330187-4.32742119-8.477314-4.32742119-4.54429532 0-8.47731102 4.32742119-8.47731102 4.32742119zM13.75 10c0-2.06968117-1.68031883-3.75-3.75-3.75S6.25 7.93031883 6.25 10s1.68031883 3.75 3.75 3.75 3.75-1.68031883 3.75-3.75z"/>
    <ellipse cx="10" cy="10" fill="rgb(220,79,85)" rx="1.875" ry="1.875"/>
    <path fill="none" stroke="rgb(220,79,85)" stroke-linecap="round" stroke-linejoin="miter" stroke-width="1.5" d="M2.5 17.5l15-15"/>
  </g>
</svg>
