<svg xmlns="http://www.w3.org/2000/svg" width="24" height="24" viewBox="0 0 24 24">
  <g>
    <ellipse cx="7.25" cy="18.25" fill="rgb(251,246,248)" rx=".75" ry=".75"/>
    <path fill="rgb(251,246,248)" fill-rule="evenodd" d="M.41885688 7.81653013c-.42732321.86078538.4871546 1.77004193 1.34547908 1.337797l.7189648-.36206459c.35042777-.17647245.77167843-.13171188 1.07719763.11445913l.83505182.67284003c.68210671.54960506 1.642493.59137192 2.3697384.1030591l.72406686-.48617859c.6327492-.42486284 1.4519712-.45316824 2.11253578-.07299142l1.40055312.80606478c.61759987.35544921 1.3776736.35544921 1.99527347 0l1.40055312-.80606478c.66056458-.38017682 1.47978658-.35187142 2.11253578.07299142l.72406686.48617859c.7272454.48831282 1.68763169.44654596 2.3697384-.1030591l.83505182-.67284003c.3055192-.246171.72676986-.29093158 1.07719762-.11445913l.71896481.36206459c.85832448.43224493 1.7728023-.47701162 1.34547908-1.337797l-1.3707472-2.7611867C22.04167693 4.71515488 21.69465836 4.5 21.31485698 4.5H2.68530522c-.37980138 0-.72681995.2151549-.89570113.55534342L.41885688 7.81653013z"/>
    <path fill="rgb(251,246,248)" fill-rule="evenodd" d="M1.56395745 10.72674465C1.21905053 10.89386272 1 11.24340915 1 11.62667084V22c0 .55228424.44771528 1 1 1h1c.55228472 0 1-.44771576 1-1v-7c0-.55228424.44771528-1 1-1h3c.55228424 0 1 .44771576 1 1v7c0 .55228424.4477148 1 1 1h12c.55228424 0 1-.44771576 1-1V11.6266489c0-.38325023-.21903801-.73278808-.56393051-.89991188l-.92453194-.4480009c-.34810829-.1686821-.7622795-.1214695-1.06348991.12123107l-.84343529.67959404c-.68210792.54960537-1.6424942.5913725-2.36973953.10305977l-.72406578-.4861784c-.63274956-.42486286-1.45197106-.45316886-2.11253643-.07299232l-1.40055275.80606556c-.61759949.35544872-1.37767315.35544872-1.9952736 0l-1.40055274-.80606556c-.66056538-.38017654-1.47978688-.35187054-2.11253596.07299232l-.72406673.4861784c-.7272458.48831272-1.68763208.4465456-2.36973858-.10305977l-.84345174-.67960739c-.30120301-.2426939-.71535992-.28991127-1.06346202-.12124538l-.92467904.4480362zM12 14c-.5522852 0-1 .4477148-1 1v5c0 .55228424.4477148 1 1 1h7c.55228424 0 1-.44771576 1-1v-5c0-.5522852-.44771576-1-1-1h-7z"/>
    <path fill="rgb(251,246,248)" fill-rule="evenodd" d="M5 1h14c.55191502 0 1 .44808498 1 1s-.44808498 1-1 1H5c-.55191502 0-1-.44808498-1-1s.44808498-1 1-1z"/>
  </g>
</svg>
