<svg xmlns="http://www.w3.org/2000/svg" width="24" height="24" viewBox="0 0 24 24">
  <g>
    <path fill="none" stroke="rgb(251,246,248)" stroke-linecap="butt" stroke-linejoin="round" stroke-width="2" d="M7 5V3c0-1.1045695.8954305-2 2-2h6c1.1045695 0 2 .8954305 2 2v2"/>
    <path fill="rgb(251,246,248)" fill-rule="evenodd" d="M4 13H1v10c0 .55228424.44771528 1 1 1h20c.55228424 0 1-.44771576 1-1V13h-3v1.5c0 .55228424-.44771576 1-1 1h-2c-.55228424 0-1-.44771576-1-1V13H8v1.5c0 .55228424-.44771528 1-1 1H5c-.55228472 0-1-.44771576-1-1V13zm10 3h-4v2h4v-2z"/>
    <path fill="rgb(251,246,248)" fill-rule="evenodd" d="M1 6c-.55228475 0-1 .44771525-1 1v3c0 1.1045695.8954305 2 2 2h2v-.5c0-.55228475.44771525-1 1-1h2c.55228475 0 1 .44771525 1 1v.5h8v-.5c0-.55228475.44771525-1 1-1h2c.55228475 0 1 .44771525 1 1v.5h2c1.1045695 0 2-.8954305 2-2V7c0-.55228475-.44771525-1-1-1H1z"/>
  </g>
</svg>
