<svg xmlns="http://www.w3.org/2000/svg" width="49.436" height="48" viewBox="0 0 49.436 48">
  <g transform="translate(2.18564839 6.5)">
    <path fill="rgb(33,35,34)" fill-rule="evenodd" d="M28.16666603 22.57429886c0-5.1543312 4.17899895-9.33333206 9.33333397-9.33333206 5.15433502 0 9.33333206 4.17900085 9.33333206 9.33333206 0 5.15433502-4.17899704 9.33333397-9.33333206 9.33333397s-9.33333397-4.17899895-9.33333397-9.33333397zm16.91666603.0000019c0-4.18133354-3.40200043-7.58333396-7.58333206-7.58333396-4.18133545 0-7.58333397 3.40200042-7.58333397 7.58333397 0 4.18133354 3.40199852 7.58333397 7.58333397 7.58333397 4.18133163 0 7.58333206-3.40200043 7.58333206-7.58333397z"/>
    <path fill="none" stroke="rgb(33,35,34)" stroke-width="1" d="M29.82426667 27.8859C28.77893333 26.37856667 28.1676 24.5469 28.1676 22.57523333c0-5.15433333 4.179-9.33333333 9.33333333-9.33333333 1.73133334 0 3.353.47133333 4.74133334 1.29266667"/>
    <path fill="none" stroke="rgb(33,35,34)" stroke-linecap="round" stroke-linejoin="round" stroke-width="1.5" d="M37.5 22.5743L30.40666667 2.60563333C29.97733333 1.39696667 28.603.64563333 27.35233333.9373L24.207 1.6723"/>
    <path fill="none" stroke="rgb(33,35,34)" stroke-linecap="round" stroke-linejoin="round" stroke-width="1.5" d="M20.73593333 21.72216667l-4.235-13.69433334"/>
    <path fill="none" stroke="rgb(33,35,34)" stroke-linecap="round" stroke-linejoin="round" stroke-width="1.5" d="M31.9812 9.10303333l-8.69866667 13.47033334"/>
    <path fill="rgb(33,35,34)" fill-rule="evenodd" d="M14.14846667 9.60983333c-.63233334.112-1.148-.322-1.148-.96366666v-1.239c0-.64166667.525-1.16666667 1.16666666-1.16666667H18.8338c.64166667 0 1.16666667.525 1.16666667 1.16666667 0 .64166666-.518 1.25766666-1.148 1.372l-4.704.83066666z"/>
    <path fill="rgb(33,35,34)" fill-rule="evenodd" d="M.16666667 22.57429886c0-5.1543312 4.1789999-9.33333206 9.33333302-9.33333206 5.15433407 0 9.33333301 4.17900085 9.33333301 9.33333206 0 5.15433502-4.17899894 9.33333397-9.33333301 9.33333397-5.15433312 0-9.33333302-4.17899895-9.33333302-9.33333397zm16.91666794.0000019c0-4.18133354-3.40200138-7.58333396-7.58333492-7.58333396-4.18133307 0-7.58333302 3.40200042-7.58333302 7.58333397 0 4.18133354 3.40199995 7.58333397 7.58333302 7.58333397 4.18133354 0 7.58333492-3.40200043 7.58333492-7.58333397z"/>
    <path fill="none" stroke="rgb(33,35,34)" stroke-linecap="butt" stroke-linejoin="round" stroke-width="1" d="M19.09 17.3243s7.98.58333333 10.04966667-8.953H31.83"/>
    <path fill="none" stroke="rgb(33,35,34)" stroke-width="1" d="M9.5 13.24096667c-5.15433333 0-9.33333333 4.179-9.33333333 9.33333333"/>
    <path fill="none" stroke="rgb(33,35,34)" stroke-linecap="round" stroke-linejoin="miter" stroke-width="1" d="M.16666667 12.6H9.5"/>
    <path fill="rgb(33,35,34)" fill-rule="evenodd" d="M33.9727 3.46453333C33.34503333 3.6022 33.01603333 4.2042 33.24003333 4.8062L34.9177 9.3282c.224.602.91933333.98 1.54466667.84233333l3.01-.665c.62533333-.13766666 1.24366666-.76533333 1.372-1.393l1.08733333-5.299c.12833333-.62766666-.27766667-1.029-.90533333-.89366666L33.9727 3.46453333z"/>
    <path fill="rgb(33,35,34)" fill-rule="evenodd" d="M19.5317 19.65763333C18.26003333 15.29196667 14.27003333 12.0743 9.5007 12.0743c-1.15733333 0-2.254.23333333-3.297.581l5.55566667 7.00233333H19.5317z"/>
    <path fill="none" stroke="rgb(33,35,34)" stroke-linecap="round" stroke-linejoin="round" stroke-width="1.5" d="M9.5 22.5743l7.833-10.759"/>
    <path fill="rgb(33,35,34)" fill-rule="evenodd" d="M9.5011673 20.53263283h10.79399824c3.36700058 0 5.90800094 1.88066673 5.90800094 4.375 0 2.17933273-1.66366577 4.49400139-4.74833297 4.49400139-.41300202 0-.85633469-.04200173-1.32766724-.13533402-3.65633392-.7163353-10.63533258-3.28300094-10.9293332-3.39033508-1.80366612-.6673317-2.80233289-1.7733326-2.70666648-2.86299896.12366676-1.41399956 1.41633368-2.48033333 3.0100007-2.48033333zm10.06133222 4.375c0 .9659996.7840004 1.75 1.75 1.75s1.75-.7840004 1.75-1.75-.7840004-1.75-1.75-1.75-1.75.7840004-1.75 1.75z"/>
    <path fill="none" stroke="rgb(33,35,34)" stroke-linecap="round" stroke-linejoin="round" stroke-width=".75" d="M21.3125 27.8859v2.79066667"/>
    <path fill="none" stroke="rgb(33,35,34)" stroke-linecap="round" stroke-linejoin="round" stroke-width="1.5" d="M19.5625 30.67726667h3.5"/>
  </g>
</svg>
