<svg xmlns="http://www.w3.org/2000/svg" width="32" height="32" viewBox="0 0 32 32">
  <g>
    <path fill="rgb(220,79,85)" fill-rule="evenodd" d="M5 0h22c2.75957512 0 5 2.24042488 5 5v22c0 2.75957512-2.24042488 5-5 5H5c-2.75957512 0-5-2.24042488-5-5V5c0-2.75957512 2.24042488-5 5-5z"/>
    <path fill="rgb(255,255,255)" fill-rule="evenodd" d="M17.75057983 6.22222233H8v18.9209175h5.82921886V19.4195614h3.44360829c4.34708023 0 7.42015076-2.17432976 7.42015076-6.73269272 0-2.67573262-1.77541161-6.46464634-6.94239808-6.46464634zm-1.66977119 8.69100761h-2.25158978v-3.84252262h2.5953188c1.43168259 0 2.75772476.10564137 2.75772476 1.82902146 0 1.93624114-1.61616325 2.01350116-3.10145378 2.01350116z"/>
  </g>
</svg>
