<svg xmlns="http://www.w3.org/2000/svg" width="26" height="24" viewBox="0 0 26 24">
  <g transform="translate(0 2)">
    <path fill="none" stroke="rgb(220,79,85)" stroke-linecap="round" stroke-linejoin="round" stroke-width="2" d="M2 15l9.63302775 3.50291918c.88302979.32110174 1.85091471.32110174 2.7339445 0L24 15"/>
    <path fill="none" stroke="rgb(220,79,85)" stroke-linecap="round" stroke-linejoin="round" stroke-width="2" d="M2 10l9.63302775 3.50291918c.88302979.32110174 1.85091471.32110174 2.7339445 0L24 10"/>
    <path fill="rgb(220,79,85)" fill-rule="evenodd" d="M14.0090092.36036043c-.6524906-.23303236-1.3655278-.23303236-2.0180184 0L1.63687736 4.05825809c-.8848848.31603029-.8848848 1.56745353 0 1.88348382l10.35411346 3.69789766c.65249059.23303236 1.3655278.23303236 2.01801838 0l10.35411346-3.69789766c.8848848-.31603029.8848848-1.56745353 0-1.88348382L14.00900919.36036043z"/>
  </g>
</svg>
