<svg xmlns="http://www.w3.org/2000/svg" width="24" height="24" viewBox="0 0 24 24">
  <g>
    <path fill="rgb(220,79,85)" fill-rule="evenodd" d="M1.8089416 11.32742119c-.34663272.38139343-.34663272.96376419 0 1.34515762 0 0 4.84187508 5.32742119 10.29502869 5.32742119 5.45315456 0 10.29502964-5.32742119 10.29502964-5.32742119.34663391-.38139343.34663391-.96376419 0-1.34515762 0 0-4.84187508-5.32742119-10.29502964-5.32742119C6.65081668 6 1.8089416 11.32742119 1.8089416 11.32742119zM16.49999976 12c0-2.48361778-2.01638222-4.5-4.5-4.5s-4.5 2.01638222-4.5 4.5 2.01638222 4.5 4.5 4.5 4.5-2.01638222 4.5-4.5z"/>
    <ellipse cx="12" cy="12" fill="rgb(220,79,85)" rx="2.25" ry="2.25"/>
  </g>
</svg>
