<svg xmlns="http://www.w3.org/2000/svg" width="51" height="41" viewBox="0 0 51 41">
  <g>
    <path fill="rgb(142,140,140)" fill-rule="evenodd" d="M9.87036278 1.89616098s2.22648209 1.65612673 2.00384758 2.63544456c-.2224975.97931782-2.6717511 1.18893677-2.6717511 1.18893677s1.59789924.61543029 2.8943856.9690424c1.29662339.3537491 1.97767947.49774225 4.51859.47157413 2.5406365-.02603111 5.22567717-1.24428714 6.15567289-1.83368631.92985871-.58926217 2.6716141-1.1263251 3.73258741-1.04768375 1.0606993.07864136 1.85958042.51075782 1.85958042.51075782s-1.74161838-1.23113458-2.59297274-1.545289c-.85135436-.31429142-1.24442415-.45855858-2.97316398-.01328957-1.72860282.44540602-2.68476666.66790353-4.2171771.72037677-1.53241045.05247324-3.79972029-.18824604-5.2143057-.5550107-.59583845-.1544056-3.49529328-1.50117312-3.49529328-1.50117312"/>
    <path fill="rgb(142,140,140)" fill-rule="evenodd" d="M30.14454346 5.70729385s-2.66010561-2.23552448-1.95164836-4.64956758c.35374911-1.20482945 1.63735693-1.28347081 2.76354503-.72023976.58953618.2948366 3.05454546 1.96466391 3.05166833 3.86370202-.00150706.90437562-.14413015 1.79422862-.73325531 1.990558-2.08591409.6951677-3.1303097-.48445268-3.1303097-.48445268"/>
    <path fill="rgb(142,140,140)" fill-rule="evenodd" d="M30.281289 5.83359954c.27976595.17920366.8546425.87067219 1.1638647 1.45459113.3089482.58391893.86998716 2.73641786.88149565 4.1562095.0115085 1.41951763 0 1.68284287 0 1.68284287.12248323.43006137.37786214.71599258.49212502 1.0137063.28497217.7422977.42184101 1.18345654.77408306 1.3770458.6484487.35648923 1.7047638 1.1122135 2.2199058 1.55378337.54966748.47157414 2.07824177 1.95178535 2.07824177 1.95178535s.1944113.19468532-.06863994.56103897c-.26332524.36635364-.65269587.13727986-.82450121 0-.07398316-.05932354-.9902783-.5663822-2.02371343-1.40280292-1.55405737-1.25785072-2.88794634-2.6272242-2.88794634-2.6272242s-.56103896 1.32799772-.65255887 1.4425346c-.0915199.1143999-.80148423.87012417-.80148423.87012417s4.0648266 3.92713572 4.39665478 4.54530612c.33196517.6183074.74380476 1.39677466.76695875 1.99206508.02287998.59529042-.11426288 1.57995148-.4237591 2.35855573-.1290595.32484087-3.2173084 6.02264022-3.3086913 6.20581704-.09151991.18290281.7096903.75517625 1.030421.86971314.3205937.1145369 1.16797488.20633082 1.53432853.4352676.36607964.22893677.29168546.34361067.1545426.52651348-.13741687.18303982-.33662338.60460682-.6626973.60460682-.32648495 0-1.8101213.2551049-1.96493792.01356358-.42937634-.6696846-1.37403168-.8242272-1.60296846-1.19058085-.22893678-.36621664-1.07618096-1.05316398-1.07618096-1.05316398s4.41926074-6.98401027 4.55681461-7.55655772c.13714286-.57254746.02287998-.54953047-.45033823-.96178108-.36594263-.3185386-2.25169117-1.48843157-2.86986157-2.22113886-.6183074-.7327073-5.77054945-5.0834651-6.3428229-5.74739546-.57254744-.66393036-.89300413-1.30511774-.84724418-2.06084202.04562295-.75558727.27455973-.87012416.3204567-.96178107.04603396-.09151991-.13741688-1.07618097.0916569-2.03782504.22893678-.96178107 1.12207793-3.59503353 2.01508207-4.62559155.89314114-1.030421 1.54487798-1.60283145 2.12331668-1.71723134.57871272-.11453689.90684173-.08631368 1.22866847.01726274.33045812.10631654.69955188.35224204.97972885.5315827"/>
    <path fill="rgb(142,140,140)" fill-rule="evenodd" d="M42.48223548 19.25255544l.32031968 4.07592408 2.88520622.36635365 1.23661482-3.34444984-4.44214072-1.09782789z"/>
    <path fill="rgb(142,140,140)" fill-rule="evenodd" d="M30.57501602 33.56402206l1.09919739-.46390152 1.56268692-1.28785514-.3949852 2.57598686.6526947-.06864166.39485169-2.49021912.57830429.01712608s1.997818-3.19415474 2.49569702-3.64079475c.49815369-.44650078 1.89300919-2.24333191 2.64489746-2.64476013.75188828-.4012909 1.71736908-.35484505 1.71736908-.35484505s.24030685 2.00782204.6526947 2.97686195c.35689926.8399849 1.41965485 2.9765892 1.764637 3.43473816.34511566.45801163.70804596.32045746.9601364.1829033.25195313-.13727952.52678681-.54953004 0-1.37375832-.52665328-.82450104-2.1581192-4.7112217-2.22100448-5.22074509-.06274795-.5095234 0-.79572868 0-.79572868l-1.0535736-5.43269348h-1.14482117l-.09165573.7786026s-.36621857.2518177-.96164322-.06877518c-.22394562-.12044716-.35717392-.24499893-.46545792-.34623528-.17969513-.16799545-.29071045-.2717781-.63360596-.18603325-.54953003.13741684-.66392898.67297173-.37786102 1.18989563.29195786.52747345 1.4941864.97397423 1.4941864.97397423l1.3564949-.03438759v1.40252877l-4.53366088 3.98426628-1.87752915.54240799-1.28251266-1.27511597-4.21320152-6.68629456-2.29402733-1.65831947-1.23236656 2.02467156S8.91329479 16.36759567 8.2264843 16.2758026c-.12507439-.01666069-.25318146-.03787422-.38376808-.05949783-.58678675-.09716797-1.2236333-.20262337-1.8603878.05949783-.77846718.32059288-.68681002 1.09919739-.64105034 1.2364769.04562282.13741684.96164417 1.74024963.96164417 1.74024963.36635351.36635209 10.48738766 10.16692925 10.48738766 10.16692925s-.41225052.06220055-.36649132.58063126c.04589653.51856803.45787239 1.06796073 1.23661423 1.15947914.7786045.09152221 14.42575645.22893905 14.42575645.22893905l-1.51117325 2.17551422zm-5.90782928-12.98336029L8.08906746 17.55803871s-.45814753-.18303871-.64132452 0c-.18303967.18317795.36635351.95301247.73284387 1.39252854.366354.43937683 9.57136632 9.50710868 9.57136632 9.50710868s2.7479267-1.83190536 3.9844036-3.29745483c1.23634148-1.46541595 2.93083-4.57955933 2.93083-4.57955933zm7.2358284 8.10595131l-.60666275.5837822-.55733872-.05000687-9.36914635-.07590103s1.14509392-.91574669 2.4271946-2.51857948c1.282238-1.60310364 2.61859322-3.39294815 3.20580101-5.15224076l.21825027-.71969223 4.4531002 6.78781891.22880174 1.14481926z"/>
    <path fill="rgb(142,140,140)" fill-rule="evenodd" d="M28.69737828 36.33455658c1.05343818-.87026215 1.7917633-1.5511818 2.34321213-2.61037445.55144691-1.05919266.61625099-4.03879547.54185676-4.62531662-.07411957-.58665848-.32059288-1.28237534-1.282238-2.70203018-.96164322-1.41965485-1.6028309-1.87752915-2.97672463-3.02262306-1.37389565-1.1449585-2.23675919-1.42417527-4.39638138-2.15236283-2.00357437-.67543793-2.74778938-.8243637-5.12922478-1.14495659-2.38171005-.3207302-3.75533103-.32059478-5.95358943-.18317795-2.19825936.13741684-3.93850804.91588402-6.1825266 2.01508332-2.24401902 1.09906006-2.65626954 1.78600693-3.80109047 3.70956993C.71557695 27.54179382.76161093 30.65593719.76161093 30.65593719l.53802198.02712632s.09069788.33032226.22811472 1.29196548c.13741684.96178055.97411156 2.61941528 2.98919404 4.58860016 2.01508188 1.9693222 6.54874277 3.43473816 10.39559316 3.6636734 3.55395699.21149826 3.82466698.14938355 5.75911904-.29447937.15949821-.0365982.33030891-.0757904.51520157-.11763763 2.42705726-.54953003 6.45722198-2.61050415 7.51052284-3.48062897zM6.25705254 27.21393776c.96164417-2.92370606 4.24293423-4.32294655 6.77795315-4.61819458 1.67147255-.19468498 2.68408203-.19660187 4.65970611-.19468498 0 0 7.57245064.2252388 10.28708458 4.81287956 1.64872933 2.78614998 2.57297135 6.9329052-3.12551307 9.28666496-4.73999214 1.9579544-11.60960388 2.3873291-15.65387917-.48637008-4.23635769-3.01029206-3.90713262-5.87672806-2.9453516-8.80029488z"/>
    <path fill="rgb(142,140,140)" fill-rule="evenodd" d="M45.12109375 24.22146988c-1.35978317-.17728615-3.1600418.06877708-3.1600418.06877708-1.40814591.4121132-1.87588502.69187928-2.74765016 1.37375832-1.33978271 1.04768372-1.95192337 2.28977776-1.95192337 2.28977776-.36635208.64118766-.54966735.7786045-.96178054 2.70202827-.41225052 1.92370224-.18331528 3.70970917-.18331528 3.70970917h.8243637s.05713273-.76723099.18331528-1.5114479c0 0 .97424698 2.73312758 1.78600693 3.43487166.05525208.04775238.11436844.1006813.17786408.15753174.85742187.76766968 2.51334762 2.2502594 6.23387527 1.35364151 4.3670578-1.05220413 5.18471146-4.17497635 5.0152359-7.43105888-.1967392-3.78149796-3.68765259-5.11716843-3.68765259-5.11716843l.27497101-.54953003s-.6183052-.32634735-1.80326843-.48089027zm-.65036774 12.30586624c-3.4807701.64118958-5.697937-1.2457962-5.97277069-4.90960503-.27483368-3.66394615 1.81464386-5.24951553 3.9842682-5.61025238 0 0 5.90824126-.80203247 6.4573593 3.99262429.46348954 4.04742813-.98836135 5.88563537-4.4688568 6.52723312z"/>
  </g>
</svg>
